<?xml version="1.0" encoding="utf-8" ?>
<svg baseProfile="full" height="620" version="1.1" width="1600" xmlns="http://www.w3.org/2000/svg" xmlns:ev="http://www.w3.org/2001/xml-events" xmlns:xlink="http://www.w3.org/1999/xlink"><defs /><text fill="black" font-size="16" x="0" y="36.0">c_in</text><text fill="black" font-size="16" x="0" y="96.0">en1</text><text fill="black" font-size="16" x="0" y="156.0">c1</text><text fill="black" font-size="16" x="0" y="216.0">en2</text><text fill="black" font-size="16" x="0" y="276.0">c2</text><text fill="black" font-size="16" x="0" y="336.0">en3</text><text fill="black" font-size="16" x="0" y="396.0">c3</text><path d="M 60 180.0L 330 180.0L 330 132.0L 660 132.0L 660 180.0L 990 180.0L 990 132.0L 1320 132.0L 1320 180.0L 1560 180.0" fill="white" stroke="rgb(10%,10%,10%)" stroke-width="3" /><path d="M 60 60.0L 180 60.0L 180 12.0L 450 12.0L 450 60.0L 780 60.0L 780 12.0L 1110 12.0L 1110 60.0L 1440 60.0L 1440 12.0L 1560 12.0" fill="white" stroke="rgb(10%,10%,10%)" stroke-width="3" /><path d="M 60 300.0L 480 300.0L 480 252.0L 810 252.0L 810 300.0L 1140 300.0L 1140 252.0L 1470 252.0L 1470 300.0L 1560 300.0" fill="white" stroke="rgb(10%,10%,10%)" stroke-width="3" /><path d="M 60 72.0L 510 72.0L 510 120.0L 840 120.0L 840 72.0L 1170 72.0L 1170 120.0L 1500 120.0L 1500 72.0L 1560 72.0" fill="white" stroke="rgb(10%,10%,10%)" stroke-width="3" /><path d="M 60 420.0L 630 420.0L 630 372.0L 960 372.0L 960 420.0L 1290 420.0L 1290 372.0L 1560 372.0" fill="white" stroke="rgb(10%,10%,10%)" stroke-width="3" /><path d="M 60 192.0L 660 192.0L 660 240.0L 990 240.0L 990 192.0L 1320 192.0L 1320 240.0L 1560 240.0" fill="white" stroke="rgb(10%,10%,10%)" stroke-width="3" /><path d="M 60 312.0L 750 312.0L 750 360.0L 1080 360.0L 1080 312.0L 1410 312.0L 1410 360.0L 1560 360.0" fill="white" stroke="rgb(10%,10%,10%)" stroke-width="3" /><line stroke="rgb(10%,10%,10%)" stroke-width="0.3" x1="60" x2="60" y1="0" y2="420" /><text fill="black" font-size="12" x="60" y="436">0</text><line stroke="rgb(10%,10%,10%)" stroke-width="0.3" x1="180" x2="180" y1="0" y2="420" /><text fill="black" font-size="12" x="180" y="436">4</text><line stroke="rgb(10%,10%,10%)" stroke-width="0.3" x1="330" x2="330" y1="0" y2="420" /><text fill="black" font-size="12" x="330" y="436">9</text><line stroke="rgb(10%,10%,10%)" stroke-width="0.3" x1="450" x2="450" y1="0" y2="420" /><text fill="black" font-size="12" x="450" y="436">13</text><line stroke="rgb(10%,10%,10%)" stroke-width="0.3" x1="480" x2="480" y1="0" y2="420" /><text fill="black" font-size="12" x="480" y="436">14</text><line stroke="rgb(10%,10%,10%)" stroke-width="0.3" x1="510" x2="510" y1="0" y2="420" /><text fill="black" font-size="12" x="510" y="436">15</text><line stroke="rgb(10%,10%,10%)" stroke-width="0.3" x1="630" x2="630" y1="0" y2="420" /><text fill="black" font-size="12" x="630" y="436">19</text><line stroke="rgb(10%,10%,10%)" stroke-width="0.3" x1="660" x2="660" y1="0" y2="420" /><text fill="black" font-size="12" x="660" y="436">20</text><line stroke="rgb(10%,10%,10%)" stroke-width="0.3" x1="750" x2="750" y1="0" y2="420" /><text fill="black" font-size="12" x="750" y="436">23</text><line stroke="rgb(10%,10%,10%)" stroke-width="0.3" x1="780" x2="780" y1="0" y2="420" /><text fill="black" font-size="12" x="780" y="436">24</text><line stroke="rgb(10%,10%,10%)" stroke-width="0.3" x1="810" x2="810" y1="0" y2="420" /><text fill="black" font-size="12" x="810" y="436">25</text><line stroke="rgb(10%,10%,10%)" stroke-width="0.3" x1="840" x2="840" y1="0" y2="420" /><text fill="black" font-size="12" x="840" y="436">26</text><line stroke="rgb(10%,10%,10%)" stroke-width="0.3" x1="960" x2="960" y1="0" y2="420" /><text fill="black" font-size="12" x="960" y="436">30</text><line stroke="rgb(10%,10%,10%)" stroke-width="0.3" x1="990" x2="990" y1="0" y2="420" /><text fill="black" font-size="12" x="990" y="436">31</text><line stroke="rgb(10%,10%,10%)" stroke-width="0.3" x1="1080" x2="1080" y1="0" y2="420" /><text fill="black" font-size="12" x="1080" y="436">34</text><line stroke="rgb(10%,10%,10%)" stroke-width="0.3" x1="1110" x2="1110" y1="0" y2="420" /><text fill="black" font-size="12" x="1110" y="436">35</text><line stroke="rgb(10%,10%,10%)" stroke-width="0.3" x1="1140" x2="1140" y1="0" y2="420" /><text fill="black" font-size="12" x="1140" y="436">36</text><line stroke="rgb(10%,10%,10%)" stroke-width="0.3" x1="1170" x2="1170" y1="0" y2="420" /><text fill="black" font-size="12" x="1170" y="436">37</text><line stroke="rgb(10%,10%,10%)" stroke-width="0.3" x1="1290" x2="1290" y1="0" y2="420" /><text fill="black" font-size="12" x="1290" y="436">41</text><line stroke="rgb(10%,10%,10%)" stroke-width="0.3" x1="1320" x2="1320" y1="0" y2="420" /><text fill="black" font-size="12" x="1320" y="436">42</text><line stroke="rgb(10%,10%,10%)" stroke-width="0.3" x1="1410" x2="1410" y1="0" y2="420" /><text fill="black" font-size="12" x="1410" y="436">45</text><line stroke="rgb(10%,10%,10%)" stroke-width="0.3" x1="1440" x2="1440" y1="0" y2="420" /><text fill="black" font-size="12" x="1440" y="436">46</text><line stroke="rgb(10%,10%,10%)" stroke-width="0.3" x1="1470" x2="1470" y1="0" y2="420" /><text fill="black" font-size="12" x="1470" y="436">47</text><line stroke="rgb(10%,10%,10%)" stroke-width="0.3" x1="1500" x2="1500" y1="0" y2="420" /><text fill="black" font-size="12" x="1500" y="436">48</text><line stroke="rgb(10%,10%,10%)" stroke-width="0.3" x1="1560" x2="1560" y1="0" y2="420" /><text fill="black" font-size="12" x="1560" y="436">50</text><line stroke="rgb(10%,10%,10%)" stroke-width="0.3" x1="0" x2="1560" y1="180" y2="180" /><line stroke="rgb(10%,10%,10%)" stroke-width="0.3" x1="0" x2="1560" y1="60" y2="60" /><line stroke="rgb(10%,10%,10%)" stroke-width="0.3" x1="0" x2="1560" y1="300" y2="300" /><line stroke="rgb(10%,10%,10%)" stroke-width="0.3" x1="0" x2="1560" y1="120" y2="120" /><line stroke="rgb(10%,10%,10%)" stroke-width="0.3" x1="0" x2="1560" y1="420" y2="420" /><line stroke="rgb(10%,10%,10%)" stroke-width="0.3" x1="0" x2="1560" y1="240" y2="240" /><line stroke="rgb(10%,10%,10%)" stroke-width="0.3" x1="0" x2="1560" y1="360" y2="360" /></svg>